<svg xmlns="http://www.w3.org/2000/svg" id="Layer_4" data-name="Layer 4" viewBox="0 0 200 143">
  <defs>
    <style>
      .cls-1{fill:#eb3827}
    </style>
  </defs>
  <path d="M50.11 40.54H19A15.55 15.55 0 0 0 3.39 56.1v30.8A15.55 15.55 0 0 0 19 102.46h31.11A15.56 15.56 0 0 0 65.67 86.9V56.1a15.56 15.56 0 0 0-15.56-15.56Zm7.74 40.21a15.66 15.66 0 0 1-15.67 15.67H26.87A15.67 15.67 0 0 1 11.2 80.75V62.34a15.67 15.67 0 0 1 15.67-15.67 15.66 15.66 0 0 1 15.67 15.67v2.75a15.67 15.67 0 0 1 15.31 15.66ZM185.8 88.66c-1.86.32-4.08 1.71-5.93.68s-1.53-3.37-1.53-5.16v-13.8h6.71v-6h-6.71V54.34h-7.09v10.07h-4.47v6h4.47v15.3c0 2.2-.47 5.06.54 7.08 1.59 3.16 5.18 3.93 8.41 3.7 2.5-.17 4.72-1.18 7.09-1.83a26.24 26.24 0 0 0-1.49-6ZM81.35 64.21C68.66 66.5 64 82.89 72.81 92c3.88 4 9.85 5.29 15.26 4.32 11-2 15.58-15.27 10.38-24.45a16.31 16.31 0 0 0-17.1-7.66Zm4.85 25.92c-11.52 2.72-14.54-17-3.73-19.55C94.2 67.87 97.34 87.5 86.2 90.13ZM116.42 64.21C103.79 66.49 99.21 83 107.9 92c3.86 4 9.86 5.31 15.23 4.34 10.64-1.92 15.59-14.43 11-23.7-3.29-6.48-10.73-9.64-17.71-8.43Zm4.47 26c-11.46 2-13.79-17.59-3-19.66 11.93-2.28 14.41 17.66 3 19.67ZM164.55 84.18c-1.69-4.66-7.65-5.94-12-6.93-1.69-.38-3.8-.69-5.17-1.84-3-2.5.22-5.49 2.93-6 4-.71 7.31 1.89 10.82 3.18l3-4.1c-6.6-7.71-26.9-5.92-24.91 7.08 1.26 8.27 12.77 5.42 17.4 9.81 1.92 1.82.73 4.2-1.44 5.11-2.57 1.09-5.64.55-8.21-.27-2.38-.77-4.36-2.33-6.71-3.08-.83 1.77-2 3.34-2.61 5.22 5.73 3.5 13.5 5.63 20.14 3.45 4.8-1.53 8.62-6.46 6.76-11.63Z" class="cls-1"/>
  <text fill="#eb3726" font-family="Raleway-Bold,Raleway" font-size="7.86" font-weight="700" transform="matrix(1.06 0 0 1 184.29 60.64)">TM</text>
  <path d="M41.91 71.26h-6.36v-6.35a9.14 9.14 0 0 0-9.15-9.15 9.15 9.15 0 0 0-9.15 9.15v15.51a9.15 9.15 0 0 0 9.15 9.15h15.51a9.16 9.16 0 0 0 0-18.31Z" class="cls-1"/>
</svg>
