<?xml version="1.0" ?>
<!-- Uploaded to: SVG Repo, www.svgrepo.com, Generator: SVG Repo Mixer Tools -->
<svg width="800px" height="800px" viewBox="0 0 120 120" id="Layer_1" version="1.1" xml:space="preserve" xmlns="http://www.w3.org/2000/svg" xmlns:xlink="http://www.w3.org/1999/xlink">
<style type="text/css">
	.st0{fill:#FFF9F1;}
	.st1{fill:#5DC995;}
	.st2{fill:#45A374;}
	.st3{fill:#A0CEEA;}
	.st4{fill:#D6D6D6;}
</style>
<g>
<path class="st0" d="M35.2,107.4h49.6c10,0,18.1-8.1,18.1-18.1V39.7c0-10-8.1-18.1-18.1-18.1H35.2c-10,0-18.1,8.1-18.1,18.1v49.6   C17.1,99.3,25.2,107.4,35.2,107.4z"/>
<path class="st1" d="M17.1,38.5v8.3h85.7v-8.3c0-9.3-7.6-16.9-16.9-16.9H34C24.7,21.6,17.1,29.2,17.1,38.5z"/>
<circle class="st2" cx="46.8" cy="34.9" r="5.3"/>
<circle class="st2" cx="73.2" cy="34.9" r="5.3"/>
<path class="st0" d="M47.3,37h-0.9c-2.1,0-3.9-1.7-3.9-3.9V16.5c0-2.1,1.7-3.9,3.9-3.9h0.9c2.1,0,3.9,1.7,3.9,3.9v16.6   C51.1,35.3,49.4,37,47.3,37z"/>
<path class="st0" d="M73.6,37h-0.9c-2.1,0-3.9-1.7-3.9-3.9V16.5c0-2.1,1.7-3.9,3.9-3.9h0.9c2.1,0,3.9,1.7,3.9,3.9v16.6   C77.5,35.3,75.8,37,73.6,37z"/>
<g>
<path class="st3" d="M41.1,58.9h-8.5c-1.1,0-2,0.9-2,2v8.5c0,1.1,0.9,2,2,2h8.5c1.1,0,2-0.9,2-2v-8.5    C43.1,59.8,42.2,58.9,41.1,58.9z"/>
<path class="st3" d="M41.1,79h-8.5c-1.1,0-2,0.9-2,2v8.5c0,1.1,0.9,2,2,2h8.5c1.1,0,2-0.9,2-2v-8.5C43.1,79.9,42.2,79,41.1,79z"/>
</g>
<g>
<path class="st4" d="M54.6,63.6h32.5c1.3,0,2.3-1,2.3-2.3c0-1.3-1-2.3-2.3-2.3H54.6c-1.3,0-2.3,1-2.3,2.3    C52.2,62.6,53.3,63.6,54.6,63.6z"/>
<path class="st4" d="M54.6,71.4h17.7c1.3,0,2.3-1,2.3-2.3c0-1.3-1-2.3-2.3-2.3H54.6c-1.3,0-2.3,1-2.3,2.3    C52.2,70.4,53.3,71.4,54.6,71.4z"/>
<path class="st4" d="M87.1,79H54.6c-1.3,0-2.3,1-2.3,2.3c0,1.3,1,2.3,2.3,2.3h32.5c1.3,0,2.3-1,2.3-2.3C89.4,80.1,88.4,79,87.1,79    z"/>
<path class="st4" d="M72.3,86.9H54.6c-1.3,0-2.3,1-2.3,2.3c0,1.3,1,2.3,2.3,2.3h17.7c1.3,0,2.3-1,2.3-2.3    C74.6,87.9,73.6,86.9,72.3,86.9z"/>
</g>
</g>
</svg>